<?xml version="1.0" encoding="utf-8"?>
<!-- Generator: Adobe Illustrator 27.8.1, SVG Export Plug-In . SVG Version: 6.00 Build 0)  -->
<svg version="1.1" id="Layer_1" xmlns="http://www.w3.org/2000/svg" xmlns:xlink="http://www.w3.org/1999/xlink" x="0px" y="0px"
	 viewBox="0 0 1466 1066.2" style="enable-background:new 0 0 1466 1066.2;" xml:space="preserve">
<style type="text/css">
	.st0{fill:#FFFFFF;}
</style>
<g>
	<path class="st0" d="M978.5,993.5c111.2-39,206.1-101.7,283.6-190.6c-2,1.4-4,2.9-6,4.3c-61.7,45.5-128.5,81.3-200.7,107.2
		c-46.5,16.7-94.2,29-142.9,37.3c-23.7,4-47.7,7.3-71.7,9.2c-35.3,2.7-70.8,4.7-106.2,5.2c-28.1,0.4-56.3-0.8-84.4-3.1
		c-32.3-2.6-64.6-6.3-96.6-11.3c-35.9-5.6-71.3-14.3-106.1-24.9c-86.1-26.3-165.5-66.1-238-119.6c-1.9-1.4-3.8-2.6-5.7-4
		c-0.1-0.1-0.3,0.1-0.9,0.3c78.1,88.3,173.1,151,284.5,190c-7.9,10.6-15.5,20.7-23,30.8c-9.8,13-19.5,26.1-29.5,39
		c-1.2,1.5-3.7,2.7-5.6,2.7c-37.6-1-74.4-7.1-110.9-15.5c-69.1-15.9-134.4-41.4-194.8-78.9c-45.4-28.1-86-62.1-121.3-102.3
		c-1.4-1.6-2.4-4.4-2.3-6.6c1.4-20.8,2.9-41.5,4.7-62.2c1.8-19.9,3.8-39.7,6.1-59.6c2.5-21.1,5-42.3,8.3-63.3
		c5.1-31.8,10.5-63.6,16.7-95.2c16.5-84.3,39-167,68.5-247.8c21.9-60,47.1-118.5,78.6-174.2c4.8-8.5,9.9-17,15.3-25.1
		c1.9-2.9,5.1-5.1,8-7.3c40.6-29.6,84.1-54.1,129.9-74.6c47.6-21.3,97-37.3,148.2-46.9c14.2-2.7,28.6-4.1,42.9-6.4
		c4.3-0.7,6.6,0.7,8.4,4.7c4.1,9.1,8.8,17.9,13.6,27.5C490.7,45.6,434.7,65,381.9,92.8c-53,27.9-100.6,63.5-144.5,104.4
		c1.8-0.8,3.6-1.7,5.5-2.5c39.3-18.6,78.2-38.1,117.9-55.7c55.3-24.4,112.8-42,172.1-53.9C569.4,77.9,606.3,73,643.5,70
		c44.9-3.6,89.9-4.8,134.8-2.5c35.2,1.8,70.4,5,105.3,9.5c103.4,13.5,200,48.4,292.9,94.5c15.9,7.9,31.8,15.8,47.6,23.8
		c1.4,0.7,2.8,1.3,4.5,1.6c-44-40.5-90.8-76.9-144.3-104.3C1031.2,65.4,975,46.8,916.6,32.3c5.3-10.6,10.2-20.7,15.5-30.6
		c0.6-1.1,3.1-1.7,4.6-1.5c17.6,2.3,35.4,3.8,52.8,7.4c100.6,20.7,191.1,63.9,274.1,123.6c2,1.4,3.7,3.4,5,5.4
		c24.8,39.1,45,80.6,63.3,123.1c38.3,89,67.3,181,88,275.5c8.9,40.5,16.8,81.3,23.7,122.2c5.7,34.1,9.8,68.5,13.6,102.8
		c3.7,33.7,6,67.6,9,101.4c0.3,3.7-1,6.2-3.3,8.9c-56.6,63.4-124.8,110.4-202.8,143.6c-44,18.7-89.6,32.3-136.5,41.5
		c-28.6,5.6-57.4,9.7-86.6,10.5c-3,0.1-4.8-0.8-6.6-3.2c-16.4-22-32.9-43.9-49.4-65.9C980.1,996.1,979.5,995,978.5,993.5z
		 M399.9,599.6c0,2.8-0.1,5.7,0,8.5c0.2,3,0.5,6,0.9,8.9c4.2,35.4,18.4,65.7,45.6,89.2c46.9,40.7,113.7,34.3,154.2-14.6
		c19.6-23.6,30.1-51.1,31.7-81.7c2.5-46.9-12-87-48.1-118.3c-37.5-32.4-95.1-33.3-133.7-1.8C415.8,518.1,400.8,555.7,399.9,599.6z
		 M1066.2,601c-0.4-35.7-10.3-66.8-32.5-93.4c-18.8-22.6-42.7-37.1-72.2-40.3c-34-3.7-63.3,7.5-87.6,31.3
		c-22.4,22-35.1,48.9-39.2,79.9c-6.1,46.8,5.4,88.3,39,122.2c43.4,43.7,109.2,43.2,152.6-0.7C1053.7,672.3,1065.6,638.1,1066.2,601z
		"/>
</g>
</svg>
